<?xml version="1.0" standalone="no"?>
<!DOCTYPE svg PUBLIC "-//W3C//DTD SVG 20010904//EN"
 "http://www.w3.org/TR/2001/REC-SVG-20010904/DTD/svg10.dtd">
<svg version="1.0" xmlns="http://www.w3.org/2000/svg"
 width="198.000000pt" height="198.000000pt" viewBox="0 0 198.000000 198.000000"
 preserveAspectRatio="xMidYMid meet">
<metadata>
Created by potrace 1.14, written by Peter Selinger 2001-2017
</metadata>
<g transform="translate(0.000000,198.000000) scale(0.100000,-0.100000)"
fill="#000000" stroke="none">
<path d="M811 1940 c-377 -79 -669 -375 -741 -750 -14 -71 -14 -329 0 -400 65
-344 305 -611 650 -726 81 -27 94 -28 270 -28 176 0 189 1 270 28 345 115 584
382 650 726 14 71 14 329 0 400 -65 344 -307 614 -650 725 -76 25 -102 28
-245 31 -88 2 -180 -1 -204 -6z m669 -490 c19 -19 20 -33 20 -315 l0 -295
-165 0 -165 0 0 -165 0 -165 -295 0 c-282 0 -296 1 -315 20 -19 19 -20 33 -20
460 0 427 1 441 20 460 19 19 33 20 460 20 427 0 441 -1 460 -20z"/>
<path d="M720 1290 l0 -30 225 0 225 0 0 30 0 30 -225 0 -225 0 0 -30z"/>
<path d="M720 1110 l0 -30 285 0 285 0 0 30 0 30 -285 0 -285 0 0 -30z"/>
<path d="M720 930 l0 -30 285 0 285 0 0 30 0 30 -285 0 -285 0 0 -30z"/>
<path d="M720 750 l0 -30 165 0 165 0 0 30 0 30 -165 0 -165 0 0 -30z"/>
</g>
</svg>
