<?xml version="1.0" standalone="no"?>
<!DOCTYPE svg PUBLIC "-//W3C//DTD SVG 20010904//EN"
 "http://www.w3.org/TR/2001/REC-SVG-20010904/DTD/svg10.dtd">
<svg version="1.0" xmlns="http://www.w3.org/2000/svg"
 width="512.000000pt" height="512.000000pt" viewBox="0 0 512.000000 512.000000"
 preserveAspectRatio="xMidYMid meet">
<metadata>
Created by potrace 1.14, written by Peter Selinger 2001-2017
</metadata>
<g transform="translate(0.000000,512.000000) scale(0.100000,-0.100000)"
fill="#000000" stroke="none">
<path d="M1247 4465 c-184 -51 -338 -210 -382 -396 -22 -96 -22 -2922 0 -3018
45 -188 199 -347 386 -396 84 -23 1726 -22 1860 1 274 46 530 177 734 375 204
198 330 425 398 713 21 89 21 110 24 1173 3 951 2 1090 -12 1149 -44 191 -197
349 -386 399 -77 21 -2548 20 -2622 0z m2629 -237 c60 -32 118 -93 148 -157
21 -46 21 -48 24 -1056 2 -683 -1 -1026 -8 -1060 -26 -120 -133 -219 -256
-236 -38 -5 -100 -14 -139 -20 -97 -13 -202 -65 -275 -135 -111 -105 -156
-203 -171 -369 -12 -129 -48 -208 -120 -265 -94 -74 -48 -71 -965 -68 l-819 3
-51 27 c-60 32 -118 93 -148 157 l-21 46 0 1465 0 1465 21 46 c39 85 117 153
204 180 14 4 588 7 1275 6 l1250 -2 51 -27z m34 -2755 c-85 -151 -195 -279
-323 -377 -90 -68 -213 -137 -204 -114 16 42 27 101 36 189 11 114 38 176 101
233 62 55 118 77 229 86 53 5 114 15 136 23 22 8 44 15 48 16 5 0 -6 -25 -23
-56z"/>
<path d="M1775 3411 c-26 -11 -61 -50 -70 -79 -9 -32 12 -88 42 -112 25 -20
39 -20 813 -20 774 0 788 0 813 20 30 24 50 78 42 113 -4 14 -20 38 -36 53
l-30 29 -777 2 c-427 1 -786 -2 -797 -6z"/>
<path d="M1775 2771 c-26 -11 -61 -50 -70 -79 -9 -32 12 -88 42 -112 25 -20
39 -20 813 -20 774 0 788 0 813 20 30 24 50 78 42 113 -4 14 -20 38 -36 53
l-30 29 -777 2 c-427 1 -786 -2 -797 -6z"/>
<path d="M1775 2130 c-26 -10 -61 -49 -70 -78 -9 -32 12 -88 42 -112 25 -20
39 -20 600 -20 l575 0 34 34 c39 39 44 77 18 127 -30 59 -30 59 -631 58 -301
0 -557 -4 -568 -9z"/>
</g>
</svg>
